<svg width="24" height="24" viewBox="0 0 24 24" fill="none" xmlns="http://www.w3.org/2000/svg">
<g fill="#3938a5">
   <rect x="1.9927" y="16.364" width="12.926" height="1.5871" stroke-width=".73361"/>
   <path d="m2.8894 7.2184v1.6923h2.6627c0.50591 0 0.88757 0.36383 0.88757 0.84613h-1.7751c-1.4556 0-2.6627 1.1507-2.6627 2.5384 0 1.3961 1.2071 2.5384 2.6627 2.5384h3.5503v-5.0768c0-1.3876-1.1982-2.5384-2.6627-2.5384m-0.88757 4.2306h1.7751v1.6923h-1.7751c-0.50591 0-0.88757-0.36384-0.88757-0.84613s0.38165-0.84613 0.88757-0.84613z" stroke-width=".8666"/>
</g>
<g>
   <path d="m7.6873 5.3849h3.248v9.4507h-1.624l0.00497-7.6288h-1.624z" fill="#b30f0f" stroke-width=".8747"/>
   <path d="m11.625 5.3688h3.248v9.4668h-1.624l-0.019873-7.6288h-1.624z" fill="#b30f0f" stroke-width=".87388"/>
   <path d="m15.599 7.1947 2.4308 6.3242c-0.37312 0.97273-0.52501 1.7955-0.88225 2.2187-0.38586 0.47748-1.3022 0.62386-1.5442 0.62386l2e-3 1.5918c0.9729 0.0372 2.2798-0.71248 2.8873-1.6582 0.4308-0.5075 3.5148-9.1004 3.5148-9.1004h-1.5682l-1.6282 4.3635-1.6438-4.3635h-1.5682" fill="#3938a5" stroke-width="1.0322"/>
</g>
</svg>
