<svg width="40" height="40" viewBox="0 0 40 40" fill="none" xmlns="http://www.w3.org/2000/svg">
<path d="M13.3333 5C12.4493 5 11.6014 5.35119 10.9763 5.97631C10.3512 6.60143 10 7.44928 10 8.33333V15C10 15.8841 9.64881 16.7319 9.02369 17.357C8.39857 17.9821 7.55072 18.3333 6.66667 18.3333H5V21.6667H6.66667C7.55072 21.6667 8.39857 22.0179 9.02369 22.643C9.64881 23.2681 10 24.1159 10 25V31.6667C10 32.5507 10.3512 33.3986 10.9763 34.0237C11.6014 34.6488 12.4493 35 13.3333 35H16.6667V31.6667H13.3333V23.3333C13.3333 22.4493 12.9821 21.6014 12.357 20.9763C11.7319 20.3512 10.8841 20 10 20C10.8841 20 11.7319 19.6488 12.357 19.0237C12.9821 18.3986 13.3333 17.5507 13.3333 16.6667V8.33333H16.6667V5H13.3333ZM26.6667 5C27.5507 5 28.3986 5.35119 29.0237 5.97631C29.6488 6.60143 30 7.44928 30 8.33333V15C30 15.8841 30.3512 16.7319 30.9763 17.357C31.6014 17.9821 32.4493 18.3333 33.3333 18.3333H35V21.6667H33.3333C32.4493 21.6667 31.6014 22.0179 30.9763 22.643C30.3512 23.2681 30 24.1159 30 25V31.6667C30 32.5507 29.6488 33.3986 29.0237 34.0237C28.3986 34.6488 27.5507 35 26.6667 35H23.3333V31.6667H26.6667V23.3333C26.6667 22.4493 27.0179 21.6014 27.643 20.9763C28.2681 20.3512 29.1159 20 30 20C29.1159 20 28.2681 19.6488 27.643 19.0237C27.0179 18.3986 26.6667 17.5507 26.6667 16.6667V8.33333H23.3333V5H26.6667Z" fill="black"/>
</svg>
