<svg width="40" height="40" viewBox="0 0 40 40" fill="none" xmlns="http://www.w3.org/2000/svg">
<path d="M33.3333 8.33333V31.6667H6.66659V8.33333H33.3333ZM33.3333 5H6.66659C4.81659 5 3.33325 6.48333 3.33325 8.33333V31.6667C3.33325 33.5167 4.81659 35 6.66659 35H33.3333C35.1833 35 36.6666 33.5167 36.6666 31.6667V8.33333C36.6666 6.48333 35.1833 5 33.3333 5ZM29.9999 25H9.99992V28.3333H29.9999V25ZM16.6666 11.6667H9.99992V21.6667H16.6666V11.6667ZM19.9999 15H29.9999V11.6667H19.9999V15ZM29.9999 18.3333H19.9999V21.6667H29.9999V18.3333Z" fill="black"/>
</svg>
