<svg width="40" height="40" viewBox="0 0 40 40" fill="none" xmlns="http://www.w3.org/2000/svg">
<path d="M19.9999 1.5C10.8333 1.5 3.33325 9 3.33325 18.1667C3.33325 23.5 5.83325 28.3333 9.83325 31.3333C10.6666 30.5 11.8333 29.8333 13.1666 29.3333C11.3333 28.1667 9.66659 26.5 8.49992 24.6667H13.3333C13.3333 24.5 13.3333 24.3333 13.3333 24C13.3333 22 14.1666 20.1667 15.6666 19C15.6666 18.6667 15.6666 18.5 15.6666 18.1667C15.6666 17 15.8333 15.8333 15.9999 14.6667H24.1666C24.3333 15.8333 24.4999 17 24.4999 18.1667C24.4999 18.5 24.4999 18.6667 24.4999 19C25.9999 20.1667 26.8333 22 26.8333 24C26.8333 24.1667 26.8333 24.3333 26.8333 24.6667H31.6666C30.4999 26.6667 28.9999 28.1667 26.9999 29.3333C28.3333 29.8333 29.4999 30.5 30.3333 31.3333C34.3333 28.3333 36.8333 23.5 36.8333 18.1667C36.6666 9 29.1666 1.5 19.9999 1.5ZM12.8333 21.6667H6.99992C6.66659 20.5 6.49992 19.3333 6.49992 18.1667C6.49992 17 6.66659 15.8333 6.99992 14.6667H12.8333C12.6666 15.8333 12.6666 17 12.6666 18.1667C12.6666 19.3333 12.8333 20.5 12.8333 21.6667ZM13.3333 11.6667H8.33325C9.99992 8.83333 12.6666 6.66667 15.6666 5.66667C14.6666 7.5 13.8333 9.5 13.3333 11.6667ZM16.8333 11.6667C17.4999 9.33333 18.6666 7 19.9999 5C21.3333 7 22.4999 9.16667 23.1666 11.6667H16.8333ZM26.6666 11.6667C26.1666 9.66667 25.3333 7.66667 24.3333 5.66667C27.3333 6.66667 29.9999 8.83333 31.4999 11.6667H26.6666ZM27.1666 21.6667C27.3333 20.5 27.3333 19.3333 27.3333 18.1667C27.3333 17 27.1666 15.8333 27.1666 14.6667H32.9999C33.3333 15.8333 33.4999 17 33.4999 18.1667C33.4999 19.3333 33.3333 20.5 32.9999 21.6667H27.1666Z" fill="black"/>
<path fill-rule="evenodd" clip-rule="evenodd" d="M25 24C25 26.3333 23.5 28.1667 21.5 28.8333C21 29 20.5 29 20 29C19.5 29 19 29 18.5 28.8333C16.5 28.1667 15 26.3333 15 24C15 23 15.3333 22 15.8333 21.1667C16.6667 19.8333 18.3333 19 20 19C21.6667 19 23.3333 19.8333 24.1667 21.1667C24.6667 22 25 23 25 24Z" fill="black"/>
<path fill-rule="evenodd" clip-rule="evenodd" d="M30 34.6667V38.3333H10V34.6667C10 33.8333 10.5 33 11.1667 32.3333C12.1667 31.5 13.6667 30.8333 15.1667 30.3333C15.3333 30.3333 15.3333 30.3333 15.5 30.1667C16.6667 29.8333 18 29.6667 19 29.5C19.3333 29.5 19.6667 29.5 20 29.5C20.3333 29.5 20.6667 29.5 21 29.5C22 29.5 23.3333 29.8333 24.5 30.1667C24.6667 30.1667 24.6667 30.1667 24.8333 30.3333C26.3333 30.8333 27.8333 31.5 28.8333 32.3333C29.5 33 30 33.6667 30 34.6667Z" fill="black"/>
</svg>
