<svg width="40" height="40" viewBox="0 0 40 40" fill="none" xmlns="http://www.w3.org/2000/svg">
<g clip-path="url(#clip0_6280:84308)">
<path d="M23.25 22.0166C25.5604 22.0166 27.4333 19.778 27.4333 17.0166C27.4333 14.2552 25.5604 12.0166 23.25 12.0166C20.9396 12.0166 19.0667 14.2552 19.0667 17.0166C19.0667 19.778 20.9396 22.0166 23.25 22.0166Z" fill="black"/>
<path d="M16.5833 20.6333H11.5833V23.9666H16.5833V20.6333Z" fill="black"/>
<path d="M34.9167 10.6167H29.9167V13.95H34.9167V10.6167Z" fill="black"/>
<path d="M33.3333 35.2H0V13.45H3.33333V31.8666H33.3333V35.2Z" fill="black"/>
<path d="M36.6667 8.68319V25.3499H9.83333V8.68319H36.6667ZM40 5.34985H6.5V28.6832H40V5.34985Z" fill="black"/>
</g>
<defs>
<clipPath id="clip0_6280:84308">
<rect width="40" height="40" fill="white"/>
</clipPath>
</defs>
</svg>
