<svg width="24" height="24" viewBox="0 0 40 40" fill="none" xmlns="http://www.w3.org/2000/svg">
<path d="M11.8334 4.8501V7.58343L15.1667 10.9168V8.18343H31.6667V31.4168C31.6667 31.8588 31.4912 32.2827 31.1786 32.5953C30.866 32.9078 30.4421 33.0834 30.0001 33.0834C29.5581 33.0834 29.1341 32.9078 28.8216 32.5953C28.509 32.2827 28.3334 31.8588 28.3334 31.4168V26.5501H15.0001V22.4501L11.6667 19.1168V26.5501H6.66675V33.2168C6.67318 33.6457 6.76489 34.0691 6.93655 34.4622C7.10821 34.8553 7.35639 35.2104 7.66662 35.5066C7.97686 35.8029 8.34294 36.0345 8.74356 36.1879C9.14418 36.3413 9.57131 36.4134 10.0001 36.4001H31.5001C32.4314 36.3913 33.3216 36.0152 33.977 35.3535C34.6324 34.6918 35.0001 33.7981 35.0001 32.8668V4.8501H11.8334Z" />
<path d="M7.30004 5.41688C7.21749 5.32963 7.11801 5.26012 7.00768 5.21262C6.89735 5.16512 6.77849 5.14062 6.65837 5.14062C6.53825 5.14062 6.4194 5.16512 6.30907 5.21262C6.19874 5.26012 6.09926 5.32963 6.01671 5.41688L3.88337 7.53355C3.71542 7.7049 3.62134 7.93528 3.62134 8.17522C3.62134 8.41516 3.71542 8.64553 3.88337 8.81688L5.55004 10.4835L8.96671 7.15022" />
<path d="M19.9999 18.1003V21.517H16.5833L15.1666 20.1003L6.5166 11.4503L9.93327 8.05029L11.8333 9.95029L15.1666 13.267L19.9999 18.1003Z" />
</svg>
