<svg width="40" height="40" viewBox="0 0 40 40" fill="none" xmlns="http://www.w3.org/2000/svg">
<path d="M20 9.99984C22.6521 9.99984 25.1957 11.0534 27.071 12.9288C28.9464 14.8041 30 17.3477 30 19.9998C30 23.6998 27.9833 26.9332 25 28.6665V31.6665C25 32.1085 24.8244 32.5325 24.5118 32.845C24.1992 33.1576 23.7753 33.3332 23.3333 33.3332H16.6666C16.2246 33.3332 15.8007 33.1576 15.4881 32.845C15.1756 32.5325 15 32.1085 15 31.6665V28.6665C12.0166 26.9332 9.99996 23.6998 9.99996 19.9998C9.99996 17.3477 11.0535 14.8041 12.9289 12.9288C14.8043 11.0534 17.3478 9.99984 20 9.99984ZM23.3333 34.9998V36.6665C23.3333 37.1085 23.1577 37.5325 22.8451 37.845C22.5326 38.1576 22.1087 38.3332 21.6666 38.3332H18.3333C17.8913 38.3332 17.4673 38.1576 17.1548 37.845C16.8422 37.5325 16.6666 37.1085 16.6666 36.6665V34.9998H23.3333ZM33.3333 18.3332H38.3333V21.6665H33.3333V18.3332ZM1.66663 18.3332H6.66663V21.6665H1.66663V18.3332ZM21.6666 1.6665V6.6665H18.3333V1.6665H21.6666ZM8.19996 5.83317L11.75 9.39984L9.38329 11.7498L5.83329 8.2165L8.19996 5.83317ZM28.25 9.38317L31.7833 5.83317L34.1666 8.2165L30.6166 11.7498L28.25 9.38317Z" fill="black"/>
</svg>
