<svg width="24" height="24" viewBox="0 0 40 40" fill="none" xmlns="http://www.w3.org/2000/svg">
<path d="M21.6667 14.2832C20.35 14.2832 19.2833 15.3499 19.2833 16.6665C19.2833 17.9832 20.35 19.0499 21.6667 19.0499C22.9833 19.0499 24.05 17.9832 24.05 16.6665C24.05 15.3499 22.9833 14.2832 21.6667 14.2832Z" fill="black"/>
<path d="M21.6667 5C15.4167 5 10.3333 9.9 10.0333 16.0667L6.83333 20.3333C6.41666 20.8833 6.81666 21.6667 7.49999 21.6667H9.99999V26.6667C9.99999 28.5 11.5 30 13.3333 30H15V35H26.6667V27.2C30.6 25.3333 33.3333 21.3167 33.3333 16.6667C33.3333 10.2167 28.1167 5 21.6667 5ZM26.6667 16.6667C26.6667 16.8833 26.65 17.1 26.6333 17.3167L28.0167 18.4167C28.15 18.5167 28.1833 18.6833 28.1 18.8333L26.7667 21.15C26.6833 21.3 26.5 21.35 26.3667 21.3L24.7167 20.6333C24.3667 20.9 24 21.1167 23.6 21.2833L23.3333 23.05C23.3167 23.2167 23.1667 23.3333 23 23.3333H20.3333C20.1667 23.3333 20.0333 23.2167 20 23.05L19.75 21.2833C19.3333 21.1167 18.9667 20.9 18.6167 20.6333L16.9667 21.3C16.8167 21.35 16.6333 21.3 16.55 21.15L15.2167 18.8333C15.1333 18.7 15.1667 18.5167 15.3 18.4167L16.7 17.3167C16.6833 17.1 16.6667 16.8833 16.6667 16.6667C16.6667 16.45 16.7 16.2167 16.7333 16.0167L15.3167 14.9167C15.1833 14.8167 15.15 14.65 15.2333 14.4833L16.5667 12.1833C16.65 12.0333 16.8167 11.9833 16.9667 12.0333L18.6333 12.7C18.9667 12.45 19.35 12.2167 19.75 12.05L20 10.2833C20.0333 10.1167 20.1667 10 20.3333 10H23C23.1667 10 23.3 10.1167 23.3333 10.2833L23.5833 12.05C23.9833 12.2167 24.35 12.4333 24.7 12.7L26.3667 12.0333C26.5167 11.9833 26.7 12.0333 26.7667 12.1833L28.1 14.4833C28.1833 14.6333 28.15 14.8167 28.0167 14.9167L26.6 16.0167C26.65 16.2167 26.6667 16.4333 26.6667 16.6667Z" fill="black"/>
</svg>
