<svg width="24" height="24" viewBox="0 0 40 40" fill="none" xmlns="http://www.w3.org/2000/svg">
<path d="M16.5 5.8335H6.5C4.66667 5.8335 3 7.3335 3 9.3335V30.6668C3 32.6668 4.5 34.1668 6.5 34.1668H16.5C18.5 34.1668 20 32.6668 20 30.6668V9.3335C20 7.3335 18.5 5.8335 16.5 5.8335ZM16.6667 30.6668C16.6667 30.8335 16.6667 30.8335 16.6667 30.6668L6.5 30.8335C6.5 30.8335 6.33333 30.8335 6.33333 30.6668V28.3335H10C10.8333 28.3335 11.6667 27.5002 11.6667 26.6668C11.6667 25.8335 10.8333 25.0002 10 25.0002H6.33333V21.6668H12.5C13.3333 21.6668 14.1667 20.8335 14.1667 20.0002C14.1667 19.1668 13.3333 18.3335 12.5 18.3335H6.33333V15.0002H10C10.8333 15.0002 11.6667 14.1668 11.6667 13.3335C11.6667 12.5002 10.8333 11.6668 10 11.6668H6.33333V9.3335C6.33333 9.3335 6.33333 9.16683 6.5 9.16683H16.5C16.5 9.16683 16.6667 9.16683 16.6667 9.3335V30.6668Z" fill="black"/>
<path d="M29.8332 24.1668C31.6665 24.1668 33.1665 25.6668 33.1665 27.5002C33.1665 29.3335 31.6665 30.8335 29.8332 30.8335C27.9998 30.8335 26.4998 29.3335 26.4998 27.5002C26.4998 25.6668 27.9998 24.1668 29.8332 24.1668ZM29.8332 20.8335C26.1665 20.8335 23.1665 23.8335 23.1665 27.5002C23.1665 31.1668 26.1665 34.1668 29.8332 34.1668C33.4998 34.1668 36.4998 31.1668 36.4998 27.5002C36.4998 23.8335 33.4998 20.8335 29.8332 20.8335Z" fill="black"/>
<path d="M29.8335 11L32.3335 15.5H27.1668L29.8335 11ZM29.8335 6C29.3335 6 28.6668 6.33333 28.3335 6.83333L22.8335 16.3333C22.1668 17.5 23.0002 18.8333 24.3335 18.8333H35.1668C36.5002 18.8333 37.1668 17.5 36.6668 16.3333L31.1668 6.83333C31.0002 6.16667 30.3335 6 29.8335 6Z" fill="black"/>
</svg>
