<svg width="40" height="40" viewBox="0 0 40 40" fill="none" xmlns="http://www.w3.org/2000/svg">
<path d="M21.6667 4.99984C28.1334 4.99984 33.3334 10.2332 33.3334 16.6665C33.3334 21.3332 30.6167 25.3165 26.6667 27.1832V34.9998H15V29.9998H13.3334C11.4834 29.9998 10 28.5165 10 26.6665V21.6665H7.50003C6.80003 21.6665 6.40003 20.8332 6.80003 20.3165L10 16.0998C10.3167 9.9165 15.3834 4.99984 21.6667 4.99984ZM21.6667 1.6665C14.0167 1.6665 7.68336 7.3665 6.76669 14.8332L4.16669 18.3332H4.11669L4.08336 18.3832C3.16669 19.6498 3.05003 21.3165 3.76669 22.6998C4.36669 23.8498 5.43336 24.6498 6.66669 24.8998V26.6665C6.66669 29.7498 8.80003 32.3665 11.6667 33.1165V38.3332H30V29.1665C34.1667 26.3832 36.6667 21.7665 36.6667 16.6665C36.6667 8.38317 29.9334 1.6665 21.6667 1.6665ZM28.3334 14.7165C28.3334 17.2832 26.0667 19.3332 22.6334 22.4498L21.6667 23.3332L20.7 22.4498C17.2667 19.3332 15 17.2832 15 14.7165C15 12.7165 16.6 11.0665 18.6 11.0498H18.6667C19.8167 11.0498 20.9167 11.5665 21.6667 12.4332C22.4167 11.5665 23.5167 11.0498 24.6667 11.0498C26.6667 11.0332 28.3334 12.6498 28.3334 14.6498V14.7165Z" fill="black"/>
</svg>
