<svg width="22" height="22" viewBox="0 0 22 22" fill="none" xmlns="http://www.w3.org/2000/svg">
<path fill-rule="evenodd" clip-rule="evenodd" d="M3.90149 7.03114C1.80887 9.74871 2.12785 13.1571 3.09726 15.6265C3.29632 16.1336 3.04663 16.706 2.53957 16.9051C2.0325 17.1041 1.46006 16.8544 1.261 16.3474C0.160527 13.5442 -0.347151 9.31527 2.3385 5.82758C5.01695 2.34924 10.6144 -0.0483884 20.8977 0.181893C21.4246 0.193692 21.8492 0.617629 21.8617 1.14451C21.9708 5.72773 21.0664 12.0856 18.2829 16.4139C16.8759 18.6018 14.941 20.3411 12.3553 20.9867C9.93221 21.5918 7.09631 21.1968 3.82262 19.5739L1.85054 21.546C1.46535 21.9312 0.840833 21.9312 0.455642 21.546C0.0704501 21.1608 0.0704502 20.5363 0.455642 20.1511L2.74628 17.8604C2.7891 17.8163 2.83618 17.7678 2.87351 17.7301C2.89198 17.7114 2.91479 17.6886 2.93602 17.6683C2.94179 17.6628 2.95332 17.6519 2.96813 17.6386L6.42682 14.1799L6.60697 8.81951C6.62526 8.27507 7.08145 7.84855 7.62588 7.86685C8.17032 7.88514 8.59684 8.34133 8.57854 8.88577L8.46926 12.1375L14.3176 6.28913C14.7028 5.90394 15.3273 5.90394 15.7125 6.28913C16.0977 6.67432 16.0977 7.29884 15.7125 7.68403L12.8886 10.5079L15.0487 10.6045C15.5929 10.6288 16.0144 11.0897 15.9901 11.6339C15.9657 12.1781 15.5049 12.5995 14.9607 12.5752L10.9985 12.3981L5.3031 18.0934C8.00439 19.3177 10.1621 19.5011 11.8774 19.0728C13.8373 18.5834 15.3997 17.2502 16.6237 15.3469C18.9281 11.7635 19.8612 6.41194 19.8967 2.14032C10.4814 2.08214 5.93364 4.39211 3.90149 7.03114ZM3.92948 19.467L3.96055 19.436Z"/>
</svg>
