<svg width="24" height="24" viewBox="0 0 24 24" fill="none" xmlns="http://www.w3.org/2000/svg">
<path d="M3.48752 7.5985L7.41189 3.493C7.71252 3.1785 8.12689 3 8.55752 3H15.0081C15.9019 3 16.6746 3.39003 16.6746 4.32503L8.70757 12.132C8.6116 12.226 8.55752 12.3547 8.55752 12.4891V16.4964C8.55752 16.7726 8.78138 16.9964 9.05752 16.9964H13.1097C13.2404 16.9964 13.3659 16.9453 13.4593 16.8539L16.6746 13.7101L16.6664 19.656C16.6664 20.591 15.9433 21.356 15.0496 21.356H4.62502C3.73127 21.356 3.00002 20.591 3.00002 19.656L3.00814 8.8055C3.00814 8.355 3.17877 7.9215 3.48752 7.5985ZM7.88314 8.55357C8.33002 8.55357 8.69564 8.17107 8.69564 7.70357V3.87857L4.22689 8.55357H7.88314Z" fill="#5DB2C4" fill-opacity="0.5"/>
<path d="M10.0081 13.2132V15.2659C10.0081 15.455 10.1566 15.6035 10.3457 15.6035H12.3983C12.4861 15.6035 12.5739 15.5698 12.6347 15.5022L20.0081 8.13559L17.476 5.60352L10.1093 12.9702C10.0418 13.0377 10.0081 13.1187 10.0081 13.2132ZM21.8088 6.35703C22.0745 6.09138 22.0745 5.66226 21.8088 5.39662L20.215 3.80275C19.9493 3.5371 19.5202 3.5371 19.2545 3.80275L18.0081 5.04924L20.5623 7.60352L21.8088 6.35703Z" fill="#5DB2C4"/>
</svg>
