<svg width="24" height="24" viewBox="0 0 24 24" fill="none" xmlns="http://www.w3.org/2000/svg">
<path d="M18.15 1.35018L14.15 5.35018C14.05 5.45018 14 5.57018 14 5.71018V13.8802C14 14.3102 14.51 14.5402 14.83 14.2502L18.83 10.6502C18.94 10.5602 19 10.4202 19 10.2802V1.71018C19 1.26018 18.46 1.04018 18.15 1.35018ZM22.47 5.20018C22 4.96018 21.51 4.76019 21 4.59018V16.6202C19.86 16.2102 18.69 16.0002 17.5 16.0002C15.6 16.0002 13.72 16.5402 12 17.5802V5.48018C10.38 4.55018 8.51 4.00018 6.5 4.00018C4.71 4.00018 3.02 4.44018 1.53 5.20018C1.2 5.36018 1 5.71018 1 6.08018V18.1602C1 18.9202 1.81 19.3902 2.48 19.0302C3.69 18.4002 5.05 18.0002 6.5 18.0002C8.57 18.0002 10.48 18.8202 12 20.0002C13.52 18.8202 15.43 18.0002 17.5 18.0002C18.95 18.0002 20.31 18.4002 21.52 19.0402C22.19 19.4002 23 18.9302 23 18.1702V6.08018C23 5.71018 22.8 5.36018 22.47 5.20018Z" fill="#ED2828"/>
</svg>
