<svg width="24" height="24" viewBox="0 0 40 40" fill="none" xmlns="http://www.w3.org/2000/svg">
<path d="M32.3167 17.9002L18.3334 31.8835V36.6668H10.0001C8.15008 36.6668 6.66675 35.1835 6.66675 33.3335V6.66683C6.66675 4.8335 8.15008 3.3335 10.0001 3.3335H11.6667V15.0002L15.8334 12.5002L20.0001 15.0002V3.3335H30.0001C31.8334 3.3335 33.3334 4.81683 33.3334 6.66683V17.1668C32.9667 17.3668 32.6167 17.6002 32.3167 17.9002ZM21.6667 33.2668V36.6668H25.0667L35.2834 26.4668L31.8834 23.0502L21.6667 33.2668ZM38.0834 22.4502L35.8834 20.2502C35.5501 19.9168 35.0001 19.9168 34.6834 20.2502L33.0501 21.8835L36.4501 25.2835L38.0834 23.6502C38.4167 23.3335 38.4167 22.7835 38.0834 22.4502Z" />
</svg>
