<svg width="24" height="24" viewBox="0 0 24 24" fill="none" xmlns="http://www.w3.org/2000/svg">
<path d="M18.15 1.35018L14.15 5.35018C14.05 5.45018 14 5.57018 14 5.71018V13.8802C14 14.3102 14.51 14.5402 14.83 14.2502L18.83 10.6502C18.94 10.5602 19 10.4202 19 10.2802V1.71018C19 1.26018 18.46 1.04018 18.15 1.35018Z" fill="#ED2828" fill-opacity="0.5"/>
<path d="M22.47 5.2C22 4.96 21.51 4.76 21 4.59V16.62C19.86 16.21 18.69 16 17.5 16C15.6 16 13.72 16.54 12 17.58V5.48C10.38 4.55 8.51 4 6.5 4C4.71 4 3.02 4.44 1.53 5.2C1.2 5.36 1 5.71 1 6.08V18.16C1 18.92 1.81 19.39 2.48 19.03C3.69 18.4 5.05 18 6.5 18C8.57 18 10.48 18.82 12 20C13.52 18.82 15.43 18 17.5 18C18.95 18 20.31 18.4 21.52 19.04C22.19 19.4 23 18.93 23 18.17V6.08C23 5.71 22.8 5.36 22.47 5.2Z" fill="#ED2828"/>
</svg>
