<svg width="24" height="24" viewBox="0 0 24 24" fill="none" xmlns="http://www.w3.org/2000/svg">
<path d="M5.99 6.91C6.38 7.29 7.02 7.29 7.4 6.91C7.79 6.52 7.79 5.89 7.4 5.5L6.69 4.79C6.3 4.4 5.67 4.4 5.28 4.79C4.89 5.18 4.89 5.81 5.28 6.2L5.99 6.91ZM5 12C5 11.45 4.55 11 4 11H3C2.45 11 2 11.45 2 12C2 12.55 2.45 13 3 13H4C4.55 13 5 12.55 5 12ZM21 13C21.55 13 22 12.55 22 12C22 11.45 21.55 11 21 11H20C19.45 11 19 11.45 19 12C19 12.55 19.45 13 20 13H21ZM18.01 6.91L18.72 6.2C19.11 5.81 19.11 5.18 18.72 4.79C18.33 4.4 17.7 4.4 17.31 4.79L16.6 5.5C16.21 5.89 16.21 6.52 16.6 6.91C16.99 7.3 17.62 7.3 18.01 6.91ZM12 5C12.55 5 13 4.55 13 4V3C13 2.45 12.55 2 12 2C11.45 2 11 2.45 11 3V4C11 4.55 11.44 5 12 5Z" fill="#F8C529" fill-opacity="0.5"/>
<path d="M15 15.98H8.99995C7.56995 14.9 6.71995 13.08 7.08995 11.07C7.44995 9.11998 8.98995 7.51998 10.93 7.11998C14.16 6.43998 17 8.88998 17 12C17 13.63 16.21 15.06 15 15.98Z" fill="#F8C529"/>
<path d="M12 22C13.1 22 14 21.1 14 20H10C10 21.1 10.9 22 12 22ZM9.75 17C9.3375 17 9 17.45 9 18C9 18.55 9.3375 19 9.75 19H14.25C14.6625 19 15 18.55 15 18C15 17.45 14.6625 17 14.25 17H9.75Z" fill="#F8C529"/>
</svg>
