<svg width="24" height="24" viewBox="0 0 24 24" fill="none" xmlns="http://www.w3.org/2000/svg">
<path d="M5.99 6.90998C6.38 7.28998 7.02 7.28998 7.4 6.90998C7.79 6.51998 7.79 5.88998 7.4 5.49998L6.69 4.78998C6.3 4.39998 5.67 4.39998 5.28 4.78998C4.89 5.17998 4.89 5.80998 5.28 6.19998L5.99 6.90998ZM5 12C5 11.45 4.55 11 4 11H3C2.45 11 2 11.45 2 12C2 12.55 2.45 13 3 13H4C4.55 13 5 12.55 5 12ZM21 13C21.55 13 22 12.55 22 12C22 11.45 21.55 11 21 11H20C19.45 11 19 11.45 19 12C19 12.55 19.45 13 20 13H21ZM18.01 6.90998L18.72 6.19998C19.11 5.80998 19.11 5.17998 18.72 4.78998C18.33 4.39998 17.7 4.39998 17.31 4.78998L16.6 5.49998C16.21 5.88998 16.21 6.51998 16.6 6.90998C16.99 7.29998 17.62 7.29998 18.01 6.90998ZM15 15.98C16.21 15.06 17 13.63 17 12C17 8.88998 14.16 6.43998 10.93 7.11998C8.99 7.51998 7.45 9.11998 7.09 11.07C6.72 13.08 7.57 14.9 9 15.98H15ZM12 4.99998C12.55 4.99998 13 4.54998 13 3.99998V2.99998C13 2.44998 12.55 1.99998 12 1.99998C11.45 1.99998 11 2.44998 11 2.99998V3.99998C11 4.54998 11.44 4.99998 12 4.99998Z" fill="#F8C529"/>
<path d="M12 22C13.1 22 14 21.1 14 20H10C10 21.1 10.9 22 12 22ZM9.75 17C9.3375 17 9 17.45 9 18C9 18.55 9.3375 19 9.75 19H14.25C14.6625 19 15 18.55 15 18C15 17.45 14.6625 17 14.25 17H9.75Z" fill="#F8C529"/>
</svg>
