<svg width="24" height="24" viewBox="0 0 40 40" fill="none" xmlns="http://www.w3.org/2000/svg">
<path d="M19.9999 18.3333C20.442 18.3333 20.8659 18.5089 21.1784 18.8214C21.491 19.134 21.6666 19.5579 21.6666 19.9999C21.6666 20.442 21.491 20.8659 21.1784 21.1784C20.8659 21.491 20.442 21.6666 19.9999 21.6666C19.5579 21.6666 19.134 21.491 18.8214 21.1784C18.5089 20.8659 18.3333 20.442 18.3333 19.9999C18.3333 19.5579 18.5089 19.134 18.8214 18.8214C19.134 18.5089 19.5579 18.3333 19.9999 18.3333ZM7.03326 7.03326C9.41659 4.64993 14.5833 5.71659 19.9999 9.26659C25.4166 5.71659 30.5833 4.64993 32.9666 7.03326C35.3499 9.41659 34.2833 14.5833 30.7333 19.9999C34.2833 25.4166 35.3499 30.5833 32.9666 32.9666C30.5833 35.3499 25.4166 34.2833 19.9999 30.7333C14.5833 34.2833 9.41659 35.3499 7.03326 32.9666C4.64993 30.5833 5.71659 25.4166 9.26659 19.9999C5.71659 14.5833 4.64993 9.41659 7.03326 7.03326ZM25.8999 14.0999C26.9166 15.1333 27.8499 16.1833 28.7166 17.2333C31.0166 13.6833 31.8499 10.6333 30.5999 9.39993C29.3666 8.14993 26.3166 8.98326 22.7666 11.2833C23.8166 12.1499 24.8666 13.0833 25.8999 14.0999ZM14.0999 25.8999C13.0833 24.8666 12.1499 23.8166 11.2833 22.7666C8.98326 26.3166 8.14993 29.3666 9.39993 30.5999C10.6333 31.8499 13.6833 31.0166 17.2333 28.7166C16.1833 27.8499 15.1333 26.9166 14.0999 25.8999ZM9.39993 9.39993C8.14993 10.6333 8.98326 13.6833 11.2833 17.2333C12.1499 16.1833 13.0833 15.1333 14.0999 14.0999C15.1333 13.0833 16.1833 12.1499 17.2333 11.2833C13.6833 8.98326 10.6333 8.14993 9.39993 9.39993ZM16.4666 23.5333C17.6333 24.6999 18.8333 25.7666 19.9999 26.7166C21.1666 25.7666 22.3666 24.6999 23.5333 23.5333C24.6999 22.3666 25.7666 21.1666 26.7166 19.9999C25.7666 18.8333 24.6999 17.6333 23.5333 16.4666C22.3666 15.2999 21.1666 14.2333 19.9999 13.2833C18.8333 14.2333 17.6333 15.2999 16.4666 16.4666C15.2999 17.6333 14.2333 18.8333 13.2833 19.9999C14.2333 21.1666 15.2999 22.3666 16.4666 23.5333ZM30.5999 30.5999C31.8499 29.3666 31.0166 26.3166 28.7166 22.7666C27.8499 23.8166 26.9166 24.8666 25.8999 25.8999C24.8666 26.9166 23.8166 27.8499 22.7666 28.7166C26.3166 31.0166 29.3666 31.8499 30.5999 30.5999Z" fill="black"/>
</svg>
