<svg width="24" height="24" viewBox="0 0 40 40" fill="none" xmlns="http://www.w3.org/2000/svg">
<path d="M4.99998 28.7502V35.0002H11.25L29.6833 16.5502L23.4333 10.3002L4.99998 28.7502ZM37.6833 30.6002L30.6 37.6836L21.9333 29.0169L24.8833 26.0669L26.55 27.7336L30.6667 23.6002L33.0333 25.9669L30.6 28.3336L32.3667 30.0002L34.7333 27.6669L37.6833 30.6002ZM11.0167 18.0502L2.31665 9.40023L9.39998 2.31689L12.3333 5.26689L8.21665 9.40023L9.99998 11.1669L14.1 7.03356L16.4667 9.40023L14.1 11.7502L15.7666 13.4169L11.0167 18.0502ZM34.5166 11.6669C35.1666 11.0169 35.1666 10.0002 34.5166 9.3169L30.6167 5.48356C30 4.83356 28.9166 4.83356 28.2666 5.48356L25.2 8.53356L31.45 14.7836L34.5166 11.6669Z" />
</svg>
