<svg width="24" height="24" viewBox="0 0 24 24" fill="none" xmlns="http://www.w3.org/2000/svg">
<path d="M9.17484 5.85998L13.3998 12.025C15.7698 15.485 13.4848 20.305 9.29484 20.495C9.17984 20.5 9.06984 20.505 8.95484 20.505C8.83984 20.505 8.72984 20.505 8.61484 20.495C4.42484 20.31 2.13484 15.485 4.50984 12.025L8.73984 5.85998C8.84484 5.70498 9.07484 5.70498 9.17984 5.85998H9.17484ZM17.4098 3.53498L15.1898 6.76998C13.9448 8.58498 15.1448 11.115 17.3448 11.21C17.4048 11.21 17.4648 11.21 17.5248 11.21C17.5848 11.21 17.6448 11.21 17.7048 11.21C19.9048 11.11 21.1048 8.58498 19.8598 6.76998L17.6448 3.53498C17.5898 3.45498 17.4698 3.45498 17.4148 3.53498H17.4098Z" fill="#99D5FA"/>
<path d="M14.1252 16.675C13.5102 18.725 11.7202 20.38 9.29519 20.495C9.18019 20.495 9.07019 20.495 8.95519 20.495C8.84019 20.495 8.73019 20.495 8.61519 20.495C4.42019 20.305 2.13519 15.485 4.51019 12.025L4.52519 12C5.25019 15.045 7.98519 17.305 11.2502 17.305C12.2802 17.305 13.2502 17.085 14.1252 16.68V16.675ZM18.7302 9.54C17.0152 9.54 15.5802 8.355 15.2002 6.755L15.1902 6.77C13.9452 8.585 15.1452 11.115 17.3452 11.215C17.4052 11.215 17.4652 11.215 17.5252 11.215C17.5852 11.215 17.6452 11.215 17.7052 11.215C18.9802 11.155 19.9152 10.285 20.2402 9.21C19.7802 9.42 19.2702 9.54 18.7302 9.54Z" fill="#33ACF5"/>
<path d="M8.95023 20.98C8.83023 20.98 8.71023 20.98 8.59023 20.97C6.48523 20.875 4.65523 19.68 3.70023 17.77C2.72023 15.805 2.87023 13.555 4.10523 11.755L8.33523 5.59001C8.61523 5.18501 9.29023 5.18501 9.57023 5.59001L13.7952 11.755C15.0302 13.555 15.1802 15.805 14.2002 17.77C13.2502 19.68 11.4202 20.88 9.31023 20.97C9.19023 20.975 9.07023 20.98 8.94523 20.98H8.95023ZM8.95523 6.39001L4.90023 12.3C3.86523 13.81 3.73523 15.695 4.56023 17.345C5.35523 18.94 6.88023 19.94 8.63523 20.015C8.85023 20.025 9.06023 20.025 9.27523 20.015C11.0302 19.935 12.5552 18.935 13.3502 17.345C14.1702 15.695 14.0452 13.81 13.0102 12.3L8.96023 6.39001H8.95523ZM17.5252 11.755C17.4552 11.755 17.3902 11.755 17.3252 11.755C16.1152 11.7 15.0652 11.015 14.5152 9.91501C13.9602 8.80501 14.0502 7.48501 14.7502 6.46501L16.9702 3.23001C17.2252 2.86001 17.8402 2.86001 18.0902 3.23001L20.3052 6.46501C21.0002 7.48001 21.0902 8.80501 20.5402 9.91001C19.9952 11.005 18.9452 11.695 17.7302 11.75C17.6602 11.75 17.5952 11.75 17.5252 11.75V11.755ZM17.5252 4.32001L15.6352 7.07501C15.1502 7.78001 15.0952 8.66001 15.4752 9.43001C15.8452 10.17 16.5502 10.635 17.3652 10.67C17.4702 10.67 17.5702 10.67 17.6752 10.67C18.4902 10.635 19.1952 10.17 19.5652 9.42501C19.9502 8.65501 19.8902 7.77501 19.4052 7.07001L17.5152 4.31501L17.5252 4.32001Z" fill="black"/>
<path d="M11.4998 12.66C11.3398 12.66 11.1848 12.585 11.0848 12.44L8.58485 8.77502C8.42985 8.54502 8.48985 8.23502 8.71485 8.08002C8.94485 7.92502 9.25485 7.98502 9.40985 8.21002L11.9098 11.875C12.0648 12.105 12.0048 12.415 11.7798 12.57C11.6948 12.63 11.5948 12.655 11.4998 12.655V12.66ZM18.7198 7.74002C18.9498 7.58502 19.0048 7.27002 18.8498 7.04502L18.0598 5.90002C17.9048 5.67002 17.5948 5.61502 17.3648 5.77002C17.1348 5.92502 17.0798 6.24002 17.2348 6.46502L18.0248 7.61002C18.1198 7.75002 18.2798 7.82502 18.4348 7.82502C18.5348 7.82502 18.6298 7.79502 18.7198 7.73502V7.74002Z" fill="white"/>
</svg>
