<svg id="icon" xmlns="http://www.w3.org/2000/svg" viewBox="0 0 24 24"><title>classes corner</title><path d="M21.13,4H4.87A.87.87,0,0,0,4,4.87V10H6V6H20V17H19v2h2.13a.87.87,0,0,0,.87-.87V4.87A.87.87,0,0,0,21.13,4ZM8,14a2,2,0,1,1,2,2A2,2,0,0,1,8,14Zm6,4.51V20H6V18.51c0-1.34,2.67-2,4-2S14,17.17,14,18.51Zm0-3.35a6.36,6.36,0,0,0-.92.08,1.77,1.77,0,0,1-.23.48c1.32.49,2.48,1.37,2.48,2.79V19H18V17.16C18,15.84,15.33,15.16,14,15.16Zm0-4.49a2,2,0,0,0-1.68.93,3.34,3.34,0,0,1,1,2.4,3,3,0,0,1,0,.53,1.7,1.7,0,0,0,.71.14,2,2,0,0,0,0-4Zm-6.32.93A2,2,0,0,0,4,12.67a2,2,0,0,0,2,2,1.7,1.7,0,0,0,.71-.14,3,3,0,0,1,0-.53A3.34,3.34,0,0,1,7.68,11.6Zm-.76,3.64A6.36,6.36,0,0,0,6,15.16c-1.33,0-4,.68-4,2V19H4.67v-.49c0-1.42,1.16-2.3,2.48-2.79A1.77,1.77,0,0,1,6.92,15.24Z"/></svg>